<svg width="15" height="14" viewBox="0 0 15 14" fill="none" xmlns="http://www.w3.org/2000/svg">
<g clip-path="url(#clip0_46_8592)">
<path d="M11.875 11.375H3.125C2.89294 11.375 2.67038 11.2828 2.50628 11.1187C2.34219 10.9546 2.25 10.7321 2.25 10.5V4.375C2.25 4.14294 2.34219 3.92038 2.50628 3.75628C2.67038 3.59219 2.89294 3.5 3.125 3.5H4.875L5.75 2.1875H9.25L10.125 3.5H11.875C12.1071 3.5 12.3296 3.59219 12.4937 3.75628C12.6578 3.92038 12.75 4.14294 12.75 4.375V10.5C12.75 10.7321 12.6578 10.9546 12.4937 11.1187C12.3296 11.2828 12.1071 11.375 11.875 11.375Z" stroke="black" stroke-linecap="round" stroke-linejoin="round"/>
<path d="M7.5 9.1875C8.58731 9.1875 9.46875 8.30606 9.46875 7.21875C9.46875 6.13144 8.58731 5.25 7.5 5.25C6.41269 5.25 5.53125 6.13144 5.53125 7.21875C5.53125 8.30606 6.41269 9.1875 7.5 9.1875Z" stroke="black" stroke-linecap="round" stroke-linejoin="round"/>
</g>
<defs>
<clipPath id="clip0_46_8592">
<rect width="14" height="14" fill="white" transform="translate(0.5)"/>
</clipPath>
</defs>
</svg>
