<svg width="15" height="14" viewBox="0 0 15 14" fill="none" xmlns="http://www.w3.org/2000/svg">
<g clip-path="url(#clip0_42_5924)">
<path d="M4.87116 11.5451C5.97395 12.1833 7.27122 12.3987 8.52111 12.1512C9.77099 11.9036 10.8882 11.2099 11.6644 10.1994C12.4406 9.18896 12.8228 7.93071 12.7398 6.65924C12.6568 5.38778 12.1142 4.18989 11.2133 3.28892C10.3123 2.38794 9.11441 1.84538 7.84294 1.76238C6.57148 1.67938 5.31322 2.06161 4.30276 2.83781C3.29231 3.61401 2.59862 4.7312 2.35103 5.98108C2.10344 7.23096 2.31885 8.52823 2.9571 9.63102L2.27296 11.6736C2.24725 11.7507 2.24352 11.8334 2.26218 11.9125C2.28085 11.9916 2.32117 12.0639 2.37863 12.1214C2.43609 12.1788 2.50841 12.2192 2.5875 12.2378C2.66659 12.2565 2.74931 12.2527 2.8264 12.227L4.87116 11.5451Z" stroke="black" stroke-linecap="round" stroke-linejoin="round"/>
</g>
<defs>
<clipPath id="clip0_42_5924">
<rect width="14" height="14" fill="white" transform="translate(0.5)"/>
</clipPath>
</defs>
</svg>
