<svg width="72" height="48" viewBox="0 0 72 48" fill="none" xmlns="http://www.w3.org/2000/svg">
<rect x="0.5" y="0.5" width="71" height="47" rx="3.5" fill="white" stroke="#DDDDDD"/>
<path d="M39.09 38.3998C46.8851 38.4375 54 31.98 54 24.1245C54 15.5348 46.8851 9.59677 39.09 9.59998H32.3813C24.4933 9.59677 18 15.5365 18 24.1245C18 31.9816 24.4933 38.4375 32.3813 38.3998H39.09Z" fill="#0079BE"/>
<path d="M32.4133 10.7903C25.2047 10.7927 19.3642 16.6923 19.3618 23.9738C19.3642 31.2545 25.2047 37.1541 32.4133 37.1565C39.6228 37.1541 45.4656 31.2545 45.4664 23.9738C45.4656 16.6923 39.6236 10.7927 32.4133 10.7903ZM24.1409 23.9738C24.1394 22.2903 24.6454 20.6454 25.593 19.2542C26.5405 17.8631 27.8854 16.7903 29.4518 16.1761V31.7707C27.8852 31.157 26.5402 30.0844 25.5926 28.6933C24.6451 27.3022 24.1391 25.6573 24.1409 23.9738ZM35.374 31.7739V16.1753C36.9417 16.7886 38.2877 17.8613 39.2359 19.2529C40.1841 20.6446 40.6903 22.2903 40.6882 23.9746C40.69 25.6589 40.1837 27.3044 39.2355 28.696C38.2873 30.0876 36.9415 31.1603 35.374 31.7739Z" fill="white"/>
<path d="M39.09 38.3998C46.8851 38.4375 54 31.98 54 24.1245C54 15.5348 46.8851 9.59677 39.09 9.59998H32.3813C24.4933 9.59677 18 15.5365 18 24.1245C18 31.9816 24.4933 38.4375 32.3813 38.3998H39.09Z" fill="#0079BE"/>
<path d="M32.4133 10.7903C25.2047 10.7927 19.3642 16.6923 19.3618 23.9738C19.3642 31.2545 25.2047 37.1541 32.4133 37.1565C39.6228 37.1541 45.4656 31.2545 45.4664 23.9738C45.4656 16.6923 39.6236 10.7927 32.4133 10.7903ZM24.1409 23.9738C24.1394 22.2903 24.6454 20.6454 25.593 19.2542C26.5405 17.8631 27.8854 16.7903 29.4518 16.1761V31.7707C27.8852 31.157 26.5402 30.0844 25.5926 28.6933C24.6451 27.3022 24.1391 25.6573 24.1409 23.9738ZM35.374 31.7739V16.1753C36.9417 16.7886 38.2877 17.8613 39.2359 19.2529C40.1841 20.6446 40.6903 22.2903 40.6882 23.9746C40.69 25.6589 40.1837 27.3044 39.2355 28.696C38.2873 30.0876 36.9415 31.1603 35.374 31.7739Z" fill="white"/>
</svg>
