<svg width="72" height="48" viewBox="0 0 72 48" fill="none" xmlns="http://www.w3.org/2000/svg">
<path d="M0.5 4C0.5 2.067 2.067 0.5 4 0.5H68C69.933 0.5 71.5 2.067 71.5 4V44C71.5 45.933 69.933 47.5 68 47.5H4C2.06701 47.5 0.5 45.933 0.5 44V4Z" fill="white" stroke="#DDDDDD"/>
<path fill-rule="evenodd" clip-rule="evenodd" d="M61.8011 19.1262C64.011 19.1262 65.2265 20.1126 65.2265 21.9758C65.337 23.4007 64.3425 24.6063 63.0165 24.8255L66 28.8808H63.6795L61.1381 24.9351H60.9171V28.8808H59.0386V19.1262H61.8011ZM60.9171 23.6199H61.4696C62.6851 23.6199 63.2376 23.0719 63.2376 22.0854C63.2376 21.2086 62.6851 20.6606 61.4696 20.6606H60.9171V23.6199ZM52.5193 28.8808H57.8232V27.2368H54.3978V24.6063H57.7127V22.9623H54.3978V20.7702H57.8232V19.1261H52.5193V28.8808ZM46.9944 25.7023L44.453 19.1261H42.4641L46.5524 29.1H47.5469L51.6353 19.1261H49.6464L46.9944 25.7023ZM24.5635 24.0583C24.5635 26.7984 26.7735 29.1 29.5359 29.1C30.4199 29.1 31.1934 28.8808 31.9669 28.552V26.36C31.4144 27.0176 30.6409 27.456 29.7569 27.456C27.989 27.456 26.5525 26.1408 26.5525 24.3871V24.1679C26.442 22.4143 27.8785 20.8798 29.6464 20.7702C30.5304 20.7702 31.4144 21.2086 31.9669 21.8662V19.6742C31.3039 19.2358 30.4199 19.1262 29.6464 19.1262C26.7735 18.907 24.5635 21.2086 24.5635 24.0583ZM21.1381 22.8527C20.0332 22.4142 19.7017 22.195 19.7017 21.647C19.8122 20.9894 20.3647 20.4414 21.0276 20.551C21.5801 20.551 22.1326 20.8798 22.5746 21.3182L23.5691 20.003C22.7956 19.3454 21.8011 18.9069 20.8066 18.9069C19.2597 18.7973 17.9337 20.003 17.8232 21.5374V21.647C17.8232 22.9623 18.3757 23.7295 20.1437 24.2775C20.5857 24.3871 21.0276 24.6063 21.4696 24.8255C21.8011 25.0447 22.0221 25.3735 22.0221 25.8119C22.0221 26.5792 21.3591 27.2368 20.6962 27.2368H20.5857C19.7017 27.2368 18.9282 26.6888 18.5967 25.9215L17.3812 27.1272C18.0442 28.3328 19.3702 28.9904 20.6962 28.9904C22.4641 29.1 23.9006 27.7848 24.0111 26.0311V25.7023C23.9006 24.3871 23.3481 23.7295 21.1381 22.8527ZM14.7293 28.8808H16.6078V19.1261H14.7293V28.8808ZM6 19.1262H8.76243H9.31492C11.9669 19.2358 14.0663 21.4278 13.9558 24.0583C13.9558 25.4831 13.2928 26.7984 12.1878 27.7848C11.1934 28.552 9.9779 28.9904 8.76243 28.8808H6V19.1262ZM8.43097 27.2368C9.31494 27.3464 10.3094 27.0176 10.9724 26.4696C11.6354 25.812 11.9669 24.9351 11.9669 23.9487C11.9669 23.0719 11.6354 22.1951 10.9724 21.5374C10.3094 20.9894 9.31494 20.6606 8.43097 20.7702H7.87848V27.2368H8.43097Z" fill="black"/>
<path fill-rule="evenodd" clip-rule="evenodd" d="M37.704 18.9C34.9415 18.9 32.6211 21.0921 32.6211 23.9418C32.6211 26.6818 34.831 28.9835 37.704 29.0931C40.5769 29.2027 42.7868 26.901 42.8973 24.0514C42.7868 21.2017 40.5769 18.9 37.704 18.9Z" fill="url(#paint0_linear_46_8711)"/>
<path fill-rule="evenodd" clip-rule="evenodd" d="M37.704 18.9C34.9415 18.9 32.6211 21.0921 32.6211 23.9418C32.6211 26.6818 34.831 28.9835 37.704 29.0931C40.5769 29.2027 42.7868 26.901 42.8973 24.0514C42.7868 21.2017 40.5769 18.9 37.704 18.9Z" fill="url(#paint1_radial_46_8711)"/>
<defs>
<linearGradient id="paint0_linear_46_8711" x1="34.6067" y1="19.8635" x2="41.2788" y2="27.6336" gradientUnits="userSpaceOnUse">
<stop stop-color="#E15315"/>
<stop offset="1" stop-color="#FFB320"/>
</linearGradient>
<radialGradient id="paint1_radial_46_8711" cx="0" cy="0" r="1" gradientUnits="userSpaceOnUse" gradientTransform="translate(38.4999 25.5) rotate(-126.027) scale(6.80074 7.04119)">
<stop stop-color="#FFCD83" stop-opacity="0"/>
<stop offset="0.725604" stop-color="#E45816" stop-opacity="0.7"/>
<stop offset="1" stop-color="#912301"/>
</radialGradient>
</defs>
</svg>
