<svg width="15" height="14" viewBox="0 0 15 14" fill="none" xmlns="http://www.w3.org/2000/svg">
<g id="14/MapPin" clip-path="url(#clip0_49_13571)">
<path id="Vector" d="M7.5 0.875C6.22409 0.876447 5.00085 1.38394 4.09865 2.28615C3.19644 3.18835 2.68895 4.41159 2.6875 5.6875C2.6875 9.80547 7.0625 12.9155 7.24898 13.0457C7.32255 13.0972 7.41018 13.1249 7.5 13.1249C7.58982 13.1249 7.67745 13.0972 7.75102 13.0457C7.9375 12.9155 12.3125 9.80547 12.3125 5.6875C12.3111 4.41159 11.8036 3.18835 10.9014 2.28615C9.99915 1.38394 8.77591 0.876447 7.5 0.875ZM7.5 3.9375C7.84612 3.9375 8.18446 4.04014 8.47225 4.23243C8.76003 4.42472 8.98434 4.69803 9.11679 5.0178C9.24924 5.33757 9.2839 5.68944 9.21637 6.02891C9.14885 6.36838 8.98218 6.6802 8.73744 6.92494C8.49269 7.16968 8.18087 7.33635 7.84141 7.40387C7.50194 7.4714 7.15007 7.43674 6.8303 7.30429C6.51053 7.17184 6.23722 6.94753 6.04493 6.65975C5.85264 6.37196 5.75 6.03362 5.75 5.6875C5.75 5.22337 5.93437 4.77825 6.26256 4.45006C6.59075 4.12187 7.03587 3.9375 7.5 3.9375Z" fill="black"/>
</g>
<defs>
<clipPath id="clip0_49_13571">
<rect width="14" height="14" fill="white" transform="translate(0.5)"/>
</clipPath>
</defs>
</svg>
