<svg width="15" height="14" viewBox="0 0 15 14" fill="none" xmlns="http://www.w3.org/2000/svg">
<g clip-path="url(#clip0_46_7347)">
<path d="M13.4501 10.2862L8.66768 1.98082C8.54817 1.77734 8.37756 1.60862 8.17276 1.4914C7.96796 1.37417 7.73608 1.3125 7.5001 1.3125C7.26412 1.3125 7.03224 1.37417 6.82744 1.4914C6.62264 1.60862 6.45203 1.77734 6.33252 1.98082L1.5501 10.2862C1.43511 10.483 1.37451 10.7069 1.37451 10.9348C1.37451 11.1627 1.43511 11.3866 1.5501 11.5834C1.66808 11.7881 1.83839 11.9577 2.04358 12.0749C2.24876 12.192 2.48142 12.2525 2.71768 12.25H12.2825C12.5186 12.2523 12.751 12.1918 12.956 12.0746C13.161 11.9575 13.3311 11.7879 13.449 11.5834C13.5642 11.3867 13.6249 11.1629 13.6251 10.9349C13.6253 10.707 13.5649 10.4831 13.4501 10.2862ZM7.0626 5.68754C7.0626 5.5715 7.10869 5.46022 7.19074 5.37818C7.27279 5.29613 7.38407 5.25004 7.5001 5.25004C7.61613 5.25004 7.72741 5.29613 7.80946 5.37818C7.89151 5.46022 7.9376 5.5715 7.9376 5.68754V7.87504C7.9376 7.99107 7.89151 8.10235 7.80946 8.1844C7.72741 8.26644 7.61613 8.31254 7.5001 8.31254C7.38407 8.31254 7.27279 8.26644 7.19074 8.1844C7.10869 8.10235 7.0626 7.99107 7.0626 7.87504V5.68754ZM7.5001 10.5C7.3703 10.5 7.24343 10.4615 7.13551 10.3894C7.02759 10.3173 6.94347 10.2148 6.8938 10.0949C6.84413 9.97501 6.83114 9.84306 6.85646 9.71576C6.88178 9.58846 6.94428 9.47153 7.03606 9.37975C7.12784 9.28797 7.24477 9.22547 7.37207 9.20015C7.49937 9.17482 7.63132 9.18782 7.75123 9.23749C7.87115 9.28716 7.97364 9.37127 8.04575 9.47919C8.11786 9.58711 8.15635 9.71399 8.15635 9.84379C8.15635 10.0178 8.08721 10.1848 7.96414 10.3078C7.84107 10.4309 7.67415 10.5 7.5001 10.5Z" fill="black"/>
</g>
<defs>
<clipPath id="clip0_46_7347">
<rect width="14" height="14" fill="white" transform="translate(0.5)"/>
</clipPath>
</defs>
</svg>
