<svg width="15" height="14" viewBox="0 0 15 14" fill="none" xmlns="http://www.w3.org/2000/svg">
<g id="14/CalendarBlank" clip-path="url(#clip0_47_11675)">
<path id="Vector" d="M11.875 1.75H10.5625V1.3125C10.5625 1.19647 10.5164 1.08519 10.4344 1.00314C10.3523 0.921094 10.241 0.875 10.125 0.875C10.009 0.875 9.89769 0.921094 9.81564 1.00314C9.73359 1.08519 9.6875 1.19647 9.6875 1.3125V1.75H5.3125V1.3125C5.3125 1.19647 5.26641 1.08519 5.18436 1.00314C5.10231 0.921094 4.99103 0.875 4.875 0.875C4.75897 0.875 4.64769 0.921094 4.56564 1.00314C4.48359 1.08519 4.4375 1.19647 4.4375 1.3125V1.75H3.125C2.89294 1.75 2.67038 1.84219 2.50628 2.00628C2.34219 2.17038 2.25 2.39294 2.25 2.625V11.375C2.25 11.6071 2.34219 11.8296 2.50628 11.9937C2.67038 12.1578 2.89294 12.25 3.125 12.25H11.875C12.1071 12.25 12.3296 12.1578 12.4937 11.9937C12.6578 11.8296 12.75 11.6071 12.75 11.375V2.625C12.75 2.39294 12.6578 2.17038 12.4937 2.00628C12.3296 1.84219 12.1071 1.75 11.875 1.75ZM11.875 4.375H3.125V2.625H4.4375V3.0625C4.4375 3.17853 4.48359 3.28981 4.56564 3.37186C4.64769 3.45391 4.75897 3.5 4.875 3.5C4.99103 3.5 5.10231 3.45391 5.18436 3.37186C5.26641 3.28981 5.3125 3.17853 5.3125 3.0625V2.625H9.6875V3.0625C9.6875 3.17853 9.73359 3.28981 9.81564 3.37186C9.89769 3.45391 10.009 3.5 10.125 3.5C10.241 3.5 10.3523 3.45391 10.4344 3.37186C10.5164 3.28981 10.5625 3.17853 10.5625 3.0625V2.625H11.875V4.375Z" fill="black"/>
</g>
<defs>
<clipPath id="clip0_47_11675">
<rect width="14" height="14" fill="white" transform="translate(0.5)"/>
</clipPath>
</defs>
</svg>
