<svg width="15" height="14" viewBox="0 0 15 14" fill="none" xmlns="http://www.w3.org/2000/svg">
<g clip-path="url(#clip0_41_5554)">
<path d="M7.13051 2.0546C7.26715 1.72608 7.73253 1.72608 7.86917 2.0546L8.94895 4.65071C9.00655 4.7892 9.13679 4.88383 9.28631 4.89581L12.089 5.12051C12.4437 5.14894 12.5875 5.59154 12.3173 5.82301L10.1819 7.65219C10.068 7.74977 10.0182 7.90288 10.053 8.04878L10.7054 10.7838C10.788 11.1298 10.4115 11.4034 10.1079 11.2179L7.70834 9.75231C7.58033 9.67413 7.41934 9.67413 7.29134 9.75231L4.89182 11.2179C4.58818 11.4034 4.21168 11.1298 4.29423 10.7838L4.94663 8.04878C4.98143 7.90288 4.93168 7.74977 4.81776 7.65219L2.68239 5.82301C2.41217 5.59154 2.55599 5.14894 2.91065 5.12051L5.71336 4.89581C5.86288 4.88383 5.99312 4.7892 6.05073 4.65071L7.13051 2.0546Z" fill="black"/>
</g>
<defs>
<clipPath id="clip0_41_5554">
<rect width="14" height="14" fill="white" transform="translate(0.5)"/>
</clipPath>
</defs>
</svg>
