<svg width="24" height="24" viewBox="0 0 24 24" fill="none" xmlns="http://www.w3.org/2000/svg">
<g clip-path="url(#clip0_35_2337)">
<path d="M11.6307 2.88797C11.7673 2.55945 12.2327 2.55945 12.3693 2.88797L14.5512 8.13384C14.6088 8.27233 14.7391 8.36696 14.8886 8.37895L20.5519 8.83298C20.9066 8.86141 21.0504 9.30401 20.7802 9.53548L16.4653 13.2316C16.3514 13.3292 16.3016 13.4823 16.3364 13.6282L17.6547 19.1547C17.7373 19.5008 17.3608 19.7743 17.0571 19.5889L12.2085 16.6274C12.0805 16.5492 11.9195 16.5492 11.7915 16.6274L6.94288 19.5889C6.63924 19.7743 6.26274 19.5008 6.34529 19.1547L7.66356 13.6282C7.69836 13.4823 7.64861 13.3292 7.5347 13.2316L3.21982 9.53548C2.9496 9.30401 3.09341 8.86141 3.44807 8.83298L9.11143 8.37895C9.26094 8.36696 9.39119 8.27233 9.44879 8.13384L11.6307 2.88797Z" fill="black"/>
</g>
<defs>
<clipPath id="clip0_35_2337">
<rect width="24" height="24" fill="white"/>
</clipPath>
</defs>
</svg>
