<svg width="15" height="14" viewBox="0 0 15 14" fill="none" xmlns="http://www.w3.org/2000/svg">
<g clip-path="url(#clip0_47_11677)">
<path d="M12.75 2.625H2.25C2.01794 2.625 1.79538 2.71719 1.63128 2.88128C1.46719 3.04538 1.375 3.26794 1.375 3.5V4.8125C1.375 5.04456 1.46719 5.26712 1.63128 5.43122C1.79538 5.59531 2.01794 5.6875 2.25 5.6875V10.5C2.25 10.7321 2.34219 10.9546 2.50628 11.1187C2.67038 11.2828 2.89294 11.375 3.125 11.375H11.875C12.1071 11.375 12.3296 11.2828 12.4937 11.1187C12.6578 10.9546 12.75 10.7321 12.75 10.5V5.6875C12.9821 5.6875 13.2046 5.59531 13.3687 5.43122C13.5328 5.26712 13.625 5.04456 13.625 4.8125V3.5C13.625 3.26794 13.5328 3.04538 13.3687 2.88128C13.2046 2.71719 12.9821 2.625 12.75 2.625ZM8.8125 7.875H6.1875C6.07147 7.875 5.96019 7.82891 5.87814 7.74686C5.79609 7.66481 5.75 7.55353 5.75 7.4375C5.75 7.32147 5.79609 7.21019 5.87814 7.12814C5.96019 7.04609 6.07147 7 6.1875 7H8.8125C8.92853 7 9.03981 7.04609 9.12186 7.12814C9.20391 7.21019 9.25 7.32147 9.25 7.4375C9.25 7.55353 9.20391 7.66481 9.12186 7.74686C9.03981 7.82891 8.92853 7.875 8.8125 7.875ZM12.75 4.8125H2.25V3.5H12.75V4.8125Z" fill="black"/>
</g>
<defs>
<clipPath id="clip0_47_11677">
<rect width="14" height="14" fill="white" transform="translate(0.5)"/>
</clipPath>
</defs>
</svg>
