<svg width="15" height="14" viewBox="0 0 15 14" fill="none" xmlns="http://www.w3.org/2000/svg">
<g clip-path="url(#clip0_47_11674)">
<path d="M12.3124 7.11815C12.3146 7.0394 12.3146 6.96065 12.3124 6.8819L13.1283 5.86252C13.1711 5.809 13.2007 5.74618 13.2148 5.67912C13.2289 5.61206 13.227 5.54263 13.2093 5.47643C13.0753 4.97372 12.8752 4.49099 12.6143 4.04088C12.5801 3.982 12.5326 3.9319 12.4757 3.89459C12.4187 3.85728 12.3538 3.83378 12.2862 3.82596L10.989 3.68159C10.935 3.62471 10.8803 3.57002 10.8249 3.51752L10.6718 2.21706C10.6639 2.14936 10.6403 2.08444 10.6029 2.02747C10.5655 1.9705 10.5153 1.92306 10.4563 1.88893C10.0062 1.62821 9.52349 1.42849 9.02076 1.29502C8.95456 1.27734 8.88514 1.27545 8.81808 1.28951C8.75101 1.30357 8.68819 1.33318 8.63467 1.37596L7.61803 2.18752C7.53928 2.18752 7.46053 2.18752 7.38178 2.18752L6.3624 1.37323C6.30888 1.33045 6.24606 1.30083 6.179 1.28677C6.11193 1.27271 6.04251 1.2746 5.97631 1.29229C5.47359 1.42629 4.99087 1.62637 4.54076 1.88729C4.48187 1.92148 4.43178 1.96895 4.39447 2.02592C4.35716 2.08288 4.33366 2.14777 4.32584 2.21542L4.18147 3.51479C4.12459 3.56911 4.0699 3.6238 4.0174 3.67885L2.71693 3.82815C2.64924 3.83603 2.58432 3.85961 2.52735 3.89702C2.47038 3.93443 2.42294 3.98463 2.38881 4.04362C2.12814 4.49379 1.92825 4.9765 1.79436 5.47917C1.77674 5.54541 1.77494 5.61486 1.7891 5.68192C1.80325 5.74898 1.83296 5.81179 1.87584 5.86526L2.6874 6.8819C2.6874 6.96065 2.6874 7.0394 2.6874 7.11815L1.87311 8.13753C1.83032 8.19105 1.80071 8.25387 1.78665 8.32093C1.77259 8.38799 1.77448 8.45742 1.79217 8.52362C1.92617 9.02633 2.12625 9.50906 2.38717 9.95917C2.42136 10.0181 2.46883 10.0681 2.5258 10.1055C2.58276 10.1428 2.64765 10.1663 2.71529 10.1741L4.01248 10.3185C4.0668 10.3753 4.12149 10.43 4.17654 10.4825L4.32803 11.783C4.3359 11.8507 4.35949 11.9156 4.3969 11.9726C4.4343 12.0295 4.48451 12.077 4.5435 12.1111C4.99366 12.3718 5.47638 12.5717 5.97904 12.7056C6.04528 12.7232 6.11473 12.725 6.1818 12.7108C6.24886 12.6967 6.31166 12.667 6.36514 12.6241L7.38178 11.8125C7.46053 11.8147 7.53928 11.8147 7.61803 11.8125L8.6374 12.6285C8.69093 12.6712 8.75375 12.7009 8.82081 12.7149C8.88787 12.729 8.9573 12.7271 9.0235 12.7094C9.52629 12.5756 10.009 12.3756 10.459 12.1144C10.5179 12.0802 10.568 12.0327 10.6053 11.9758C10.6426 11.9188 10.6661 11.8539 10.674 11.7863L10.8183 10.4891C10.8752 10.4351 10.9299 10.3804 10.9824 10.325L12.2829 10.1719C12.3506 10.164 12.4155 10.1404 12.4725 10.103C12.5294 10.0656 12.5769 10.0154 12.611 9.95643C12.8717 9.50626 13.0716 9.02355 13.2055 8.52088C13.2231 8.45464 13.2249 8.38519 13.2107 8.31813C13.1966 8.25107 13.1668 8.18826 13.124 8.13479L12.3124 7.11815ZM7.4999 9.18752C7.06726 9.18752 6.64433 9.05923 6.28459 8.81886C5.92486 8.5785 5.64448 8.23686 5.47892 7.83715C5.31335 7.43743 5.27003 6.9976 5.35443 6.57327C5.43884 6.14893 5.64718 5.75916 5.95311 5.45323C6.25903 5.1473 6.64881 4.93896 7.07314 4.85456C7.49748 4.77015 7.93731 4.81347 8.33702 4.97904C8.73674 5.14461 9.07838 5.42498 9.31874 5.78472C9.55911 6.14445 9.6874 6.56738 9.6874 7.00002C9.6874 7.58019 9.45693 8.13659 9.0467 8.54682C8.63646 8.95706 8.08006 9.18752 7.4999 9.18752Z" fill="black"/>
</g>
<defs>
<clipPath id="clip0_47_11674">
<rect width="14" height="14" fill="white" transform="translate(0.5)"/>
</clipPath>
</defs>
</svg>
