<svg width="24" height="24" viewBox="0 0 24 24" fill="none" xmlns="http://www.w3.org/2000/svg">
<g clip-path="url(#clip0_55_21176)">
<path d="M20.25 7.5H3.75C3.33579 7.5 3 7.83579 3 8.25V11.25C3 11.6642 3.33579 12 3.75 12H20.25C20.6642 12 21 11.6642 21 11.25V8.25C21 7.83579 20.6642 7.5 20.25 7.5Z" stroke="black" stroke-width="2" stroke-linecap="round" stroke-linejoin="round"/>
<path d="M19.5 12V18.75C19.5 18.9489 19.421 19.1397 19.2803 19.2803C19.1397 19.421 18.9489 19.5 18.75 19.5H5.25C5.05109 19.5 4.86032 19.421 4.71967 19.2803C4.57902 19.1397 4.5 18.9489 4.5 18.75V12" stroke="black" stroke-width="2" stroke-linecap="round" stroke-linejoin="round"/>
<path d="M12 7.5V19.5" stroke="black" stroke-width="2" stroke-linecap="round" stroke-linejoin="round"/>
<path d="M16.5741 2.92595C17.4497 3.80157 17.5012 5.27532 16.5741 6.09657C14.9887 7.50001 12 7.50001 12 7.50001C12 7.50001 12 4.51126 13.4062 2.92595C14.2247 1.99876 15.6984 2.05032 16.5741 2.92595Z" stroke="black" stroke-width="2" stroke-linecap="round" stroke-linejoin="round"/>
<path d="M7.4257 2.92595C6.55008 3.80157 6.49852 5.27532 7.4257 6.09657C9.01102 7.50001 11.9998 7.50001 11.9998 7.50001C11.9998 7.50001 11.9998 4.51126 10.5935 2.92595C9.77508 1.99876 8.30133 2.05032 7.4257 2.92595Z" stroke="black" stroke-width="2" stroke-linecap="round" stroke-linejoin="round"/>
</g>
<defs>
<clipPath id="clip0_55_21176">
<rect width="24" height="24" fill="white"/>
</clipPath>
</defs>
</svg>
