<svg width="15" height="14" viewBox="0 0 15 14" fill="none" xmlns="http://www.w3.org/2000/svg">
<g clip-path="url(#clip0_47_11676)">
<path d="M6.625 6.5625C6.625 6.73556 6.57368 6.90473 6.47754 7.04862C6.38139 7.19252 6.24473 7.30467 6.08485 7.37089C5.92496 7.43712 5.74903 7.45445 5.5793 7.42069C5.40956 7.38693 5.25365 7.30359 5.13128 7.18122C5.00891 7.05885 4.92557 6.90294 4.89181 6.7332C4.85805 6.56347 4.87538 6.38754 4.94161 6.22765C5.00783 6.06777 5.11998 5.93111 5.26388 5.83496C5.40777 5.73882 5.57694 5.6875 5.75 5.6875C5.98206 5.6875 6.20462 5.77969 6.36872 5.94378C6.53281 6.10788 6.625 6.33044 6.625 6.5625ZM13.1875 3.0625V10.9375C13.1875 11.1696 13.0953 11.3921 12.9312 11.5562C12.7671 11.7203 12.5446 11.8125 12.3125 11.8125H2.6875C2.45544 11.8125 2.23288 11.7203 2.06878 11.5562C1.90469 11.3921 1.8125 11.1696 1.8125 10.9375V3.0625C1.8125 2.83044 1.90469 2.60788 2.06878 2.44378C2.23288 2.27969 2.45544 2.1875 2.6875 2.1875H12.3125C12.5446 2.1875 12.7671 2.27969 12.9312 2.44378C13.0953 2.60788 13.1875 2.83044 13.1875 3.0625ZM7.92383 9.07812C7.78225 8.54952 7.44656 8.09373 6.98375 7.80172C7.22953 7.55739 7.39724 7.24559 7.46561 6.90584C7.53398 6.56609 7.49993 6.21369 7.36778 5.89332C7.23564 5.57294 7.01134 5.29901 6.72333 5.10626C6.43532 4.9135 6.09656 4.81061 5.75 4.81061C5.40344 4.81061 5.06468 4.9135 4.77667 5.10626C4.48866 5.29901 4.26436 5.57294 4.13222 5.89332C4.00007 6.21369 3.96602 6.56609 4.03439 6.90584C4.10276 7.24559 4.27047 7.55739 4.51625 7.80172C4.05373 8.09405 3.71814 8.54971 3.57617 9.07812C3.54716 9.19053 3.564 9.30986 3.62297 9.40985C3.68194 9.50985 3.77822 9.58232 3.89062 9.61133C4.00303 9.64034 4.12236 9.6235 4.22235 9.56453C4.32235 9.50556 4.39482 9.40928 4.42383 9.29688C4.5682 8.73633 5.13805 8.3125 5.75 8.3125C6.36195 8.3125 6.93234 8.73523 7.07617 9.29688C7.10518 9.40928 7.17765 9.50556 7.27765 9.56453C7.37764 9.6235 7.49697 9.64034 7.60938 9.61133C7.72178 9.58232 7.81806 9.50985 7.87703 9.40985C7.936 9.30986 7.95284 9.19053 7.92383 9.07812ZM11.4375 7.875C11.4375 7.75897 11.3914 7.64769 11.3094 7.56564C11.2273 7.48359 11.116 7.4375 11 7.4375H8.8125C8.69647 7.4375 8.58519 7.48359 8.50314 7.56564C8.42109 7.64769 8.375 7.75897 8.375 7.875C8.375 7.99103 8.42109 8.10231 8.50314 8.18436C8.58519 8.26641 8.69647 8.3125 8.8125 8.3125H11C11.116 8.3125 11.2273 8.26641 11.3094 8.18436C11.3914 8.10231 11.4375 7.99103 11.4375 7.875ZM11.4375 6.125C11.4375 6.00897 11.3914 5.89769 11.3094 5.81564C11.2273 5.73359 11.116 5.6875 11 5.6875H8.8125C8.69647 5.6875 8.58519 5.73359 8.50314 5.81564C8.42109 5.89769 8.375 6.00897 8.375 6.125C8.375 6.24103 8.42109 6.35231 8.50314 6.43436C8.58519 6.51641 8.69647 6.5625 8.8125 6.5625H11C11.116 6.5625 11.2273 6.51641 11.3094 6.43436C11.3914 6.35231 11.4375 6.24103 11.4375 6.125Z" fill="black"/>
</g>
<defs>
<clipPath id="clip0_47_11676">
<rect width="14" height="14" fill="white" transform="translate(0.5)"/>
</clipPath>
</defs>
</svg>
