<svg width="72" height="48" viewBox="0 0 72 48" fill="none" xmlns="http://www.w3.org/2000/svg">
<rect x="0.5" y="0.5" width="71" height="47" rx="5.5" fill="white" stroke="#DDDDDD"/>
<path d="M45.6166 24.5748C46.6461 24.5972 47.6815 24.5295 48.7069 24.61C49.7453 24.8033 49.9956 26.3721 49.073 26.8859C48.4436 27.2244 47.6958 27.012 47.0133 27.0717H45.6166V24.5748ZM49.3022 21.7488C49.5309 22.5544 48.7526 23.2778 47.975 23.1669H45.6166C45.6332 22.4071 45.5843 21.5824 45.6406 20.8627C46.5854 20.8892 47.5389 20.8085 48.4782 20.9049C48.8818 21.006 49.2195 21.3371 49.3022 21.7488ZM54.978 9.8009C55.0218 11.3395 54.9843 12.9595 54.9969 14.5293C54.994 20.9117 55.0031 27.2939 54.9919 33.6767C54.9505 36.0686 52.8262 38.1471 50.4459 38.1948C48.0632 38.2045 45.6802 38.1963 43.2972 38.1989V28.5501C45.8936 28.5367 48.4913 28.5772 51.0866 28.5299C52.2906 28.4544 53.6093 27.6617 53.6654 26.3395C53.8071 25.0116 52.5526 24.0931 51.3615 23.9481C50.9036 23.9362 50.917 23.8149 51.3615 23.762C52.4975 23.5169 53.3896 22.3436 53.0554 21.1685C52.7705 19.9326 51.4017 19.4542 50.2631 19.4566C47.9415 19.4409 45.6194 19.4544 43.2978 19.4498C43.3127 17.6485 43.2665 15.8453 43.3227 14.0452C43.5066 11.6965 45.6844 9.75949 48.0312 9.80151C50.3471 9.80116 52.6626 9.80116 54.978 9.80107V9.8009Z" fill="url(#paint0_linear_46_8683)"/>
<path d="M17.0618 14.2885C17.121 11.9004 19.2544 9.83898 21.6317 9.80407C24.0055 9.79678 26.3797 9.80302 28.7535 9.80091C28.747 17.7912 28.7664 25.7824 28.7438 33.7722C28.6523 36.1314 26.5422 38.1535 24.1909 38.1952C21.8125 38.2039 19.4339 38.1965 17.0555 38.1989V28.2247C19.3657 28.7694 21.7884 29.0012 24.1452 28.6399C25.554 28.4137 27.0954 27.7233 27.5724 26.2648C27.9234 25.0172 27.7258 23.7041 27.778 22.4236V19.4498H23.6993C23.6809 21.4166 23.7368 23.3868 23.6697 25.3512C23.5598 26.5587 22.3616 27.3259 21.2204 27.2849C19.8052 27.2998 17.0007 26.2614 17.0007 26.2614C16.9937 22.5764 17.0418 17.9616 17.0618 14.2889V14.2885Z" fill="url(#paint1_linear_46_8683)"/>
<path d="M30.2746 20.6493C30.0599 20.6948 30.2315 19.9195 30.1766 19.6255C30.1912 17.766 30.146 15.9046 30.2015 14.0465C30.3849 11.6877 32.5794 9.74593 34.9358 9.80114H41.8751C41.8686 17.7914 41.8879 25.7826 41.8654 33.7725C41.7738 36.1316 39.6636 38.1536 37.3121 38.1955C34.9337 38.2044 32.5551 38.1969 30.1765 38.1992V27.2711C31.8009 28.6012 34.0088 28.8083 36.0326 28.8119C37.5583 28.8113 39.0751 28.5766 40.5567 28.2255V26.2234C38.887 27.0539 36.9242 27.5814 35.0732 27.1043C33.782 26.7835 32.8447 25.5383 32.8656 24.2086C32.716 22.8257 33.5283 21.3658 34.89 20.9547C36.5807 20.4265 38.4234 20.8305 40.0082 21.5172C40.3478 21.6946 40.6924 21.9146 40.5566 21.3483V19.7747C37.9061 19.1454 35.0854 18.9138 32.4225 19.5984C31.6517 19.8154 30.9007 20.1444 30.2746 20.6495V20.6493Z" fill="url(#paint2_linear_46_8683)"/>
<defs>
<linearGradient id="paint0_linear_46_8683" x1="43.2174" y1="23.3927" x2="54.9231" y2="23.3927" gradientUnits="userSpaceOnUse">
<stop stop-color="#58B03A"/>
<stop offset="1" stop-color="#55B330"/>
</linearGradient>
<linearGradient id="paint1_linear_46_8683" x1="16.8066" y1="24.2718" x2="28.5617" y2="24.2718" gradientUnits="userSpaceOnUse">
<stop stop-color="#0F6EB6"/>
<stop offset="1" stop-color="#006DBA"/>
</linearGradient>
<linearGradient id="paint2_linear_46_8683" x1="30.1593" y1="23.6681" x2="41.873" y2="23.6681" gradientUnits="userSpaceOnUse">
<stop stop-color="#DE0D3D"/>
<stop offset="1" stop-color="#E30138"/>
</linearGradient>
</defs>
</svg>
