<svg width="24" height="24" viewBox="0 0 24 24" fill="none" xmlns="http://www.w3.org/2000/svg">
<g clip-path="url(#clip0_14_1354)">
<path d="M12.0001 21L20.3776 12.5025C21.2568 11.6233 21.7507 10.4309 21.7507 9.18751C21.7507 7.94414 21.2568 6.7517 20.3776 5.87251C19.4984 4.99331 18.306 4.49939 17.0626 4.49939C15.8193 4.49939 14.6268 4.99331 13.7476 5.87251L12.0001 7.50001L10.2526 5.87251C9.37344 4.99331 8.181 4.49939 6.93763 4.49939C5.69426 4.49939 4.50182 4.99331 3.62263 5.87251C2.74344 6.7517 2.24951 7.94414 2.24951 9.18751C2.24951 10.4309 2.74344 11.6233 3.62263 12.5025L12.0001 21Z" stroke="black" stroke-width="2" stroke-linecap="round" stroke-linejoin="round"/>
</g>
<defs>
<clipPath id="clip0_14_1354">
<rect width="24" height="24" fill="white"/>
</clipPath>
</defs>
</svg>
