<svg width="15" height="14" viewBox="0 0 15 14" fill="none" xmlns="http://www.w3.org/2000/svg">
<g clip-path="url(#clip0_14_1377)">
<path d="M7.49987 12.25L12.3867 7.29312C12.8996 6.78026 13.1877 6.08467 13.1877 5.35937C13.1877 4.63407 12.8996 3.93848 12.3867 3.42562C11.8739 2.91276 11.1783 2.62463 10.453 2.62463C9.7277 2.62463 9.03211 2.91276 8.51925 3.42562L7.49987 4.37499L6.4805 3.42562C5.96763 2.91276 5.27204 2.62463 4.54675 2.62463C3.82145 2.62463 3.12586 2.91276 2.613 3.42562C2.10013 3.93848 1.81201 4.63407 1.81201 5.35937C1.81201 6.08467 2.10013 6.78026 2.613 7.29312L7.49987 12.25Z" stroke="black" stroke-linecap="round" stroke-linejoin="round"/>
</g>
<defs>
<clipPath id="clip0_14_1377">
<rect width="14" height="14" fill="white" transform="translate(0.5)"/>
</clipPath>
</defs>
</svg>
