<svg width="72" height="48" viewBox="0 0 72 48" fill="none" xmlns="http://www.w3.org/2000/svg">
<path d="M0.5 4C0.5 2.067 2.067 0.5 4 0.5H68C69.933 0.5 71.5 2.067 71.5 4V44C71.5 45.933 69.933 47.5 68 47.5H4C2.06701 47.5 0.5 45.933 0.5 44V4Z" fill="white" stroke="#DDDDDD"/>
<path d="M40.9016 24C40.9016 31.7872 34.6556 38.1 26.9508 38.1C19.246 38.1 13 31.7872 13 24C13 16.2128 19.246 9.90002 26.9508 9.90002C34.6556 9.90002 40.9016 16.2128 40.9016 24Z" fill="#ED0006"/>
<path d="M58.9998 24C58.9998 31.7872 52.7538 38.1 45.049 38.1C37.3441 38.1 31.0981 31.7872 31.0981 24C31.0981 16.2128 37.3441 9.90002 45.049 9.90002C52.7538 9.90002 58.9998 16.2128 58.9998 24Z" fill="#0099DF"/>
<path fill-rule="evenodd" clip-rule="evenodd" d="M36.0001 34.7315C38.9997 32.1453 40.9016 28.2971 40.9016 23.9999C40.9016 19.7027 38.9997 15.8545 36.0001 13.2683C33.0006 15.8545 31.0986 19.7027 31.0986 23.9999C31.0986 28.2971 33.0006 32.1453 36.0001 34.7315Z" fill="#6C6BBD"/>
</svg>
