<svg width="15" height="14" viewBox="0 0 15 14" fill="none" xmlns="http://www.w3.org/2000/svg">
<g clip-path="url(#clip0_55_21255)">
<path d="M7.5 7.4375C8.4665 7.4375 9.25 6.654 9.25 5.6875C9.25 4.721 8.4665 3.9375 7.5 3.9375C6.5335 3.9375 5.75 4.721 5.75 5.6875C5.75 6.654 6.5335 7.4375 7.5 7.4375Z" stroke="black" stroke-linecap="round" stroke-linejoin="round"/>
<path d="M11.875 5.6875C11.875 9.625 7.5 12.6875 7.5 12.6875C7.5 12.6875 3.125 9.625 3.125 5.6875C3.125 4.52718 3.58594 3.41438 4.40641 2.59391C5.22688 1.77344 6.33968 1.3125 7.5 1.3125C8.66032 1.3125 9.77312 1.77344 10.5936 2.59391C11.4141 3.41438 11.875 4.52718 11.875 5.6875Z" stroke="black" stroke-linecap="round" stroke-linejoin="round"/>
</g>
<defs>
<clipPath id="clip0_55_21255">
<rect width="14" height="14" fill="white" transform="translate(0.5)"/>
</clipPath>
</defs>
</svg>
