<svg width="72" height="48" viewBox="0 0 72 48" fill="none" xmlns="http://www.w3.org/2000/svg">
<path d="M0.5 4C0.5 2.067 2.067 0.5 4 0.5H68C69.933 0.5 71.5 2.067 71.5 4V44C71.5 45.933 69.933 47.5 68 47.5H4C2.06701 47.5 0.5 45.933 0.5 44V4Z" fill="white" stroke="#DDDDDD"/>
<path fill-rule="evenodd" clip-rule="evenodd" d="M36 34.7318C33.5639 36.8321 30.4038 38.1 26.9508 38.1C19.246 38.1 13 31.7872 13 24C13 16.2128 19.246 9.90002 26.9508 9.90002C30.4038 9.90002 33.5639 11.168 36 13.2683C38.4361 11.168 41.5961 9.90002 45.0491 9.90002C52.7539 9.90002 58.9999 16.2128 58.9999 24C58.9999 31.7872 52.7539 38.1 45.0491 38.1C41.5961 38.1 38.4361 36.8321 36 34.7318Z" fill="#ED0006"/>
<path fill-rule="evenodd" clip-rule="evenodd" d="M36 34.7318C38.9996 32.1456 40.9017 28.2973 40.9017 24C40.9017 19.7028 38.9996 15.8545 36 13.2683C38.4361 11.168 41.5961 9.90002 45.0491 9.90002C52.754 9.90002 59 16.2128 59 24C59 31.7872 52.754 38.1 45.0491 38.1C41.5961 38.1 38.4361 36.8321 36 34.7318Z" fill="#F9A000"/>
<path fill-rule="evenodd" clip-rule="evenodd" d="M36.0001 34.7315C38.9997 32.1453 40.9016 28.2971 40.9016 23.9999C40.9016 19.7027 38.9997 15.8545 36.0001 13.2683C33.0006 15.8545 31.0986 19.7027 31.0986 23.9999C31.0986 28.2971 33.0006 32.1453 36.0001 34.7315Z" fill="#FF5E00"/>
</svg>
