<svg width="15" height="14" viewBox="0 0 15 14" fill="none" xmlns="http://www.w3.org/2000/svg">
<g clip-path="url(#clip0_55_21259)">
<path d="M9.25 2.1875C9.98583 2.38127 10.657 2.76687 11.1951 3.30491C11.7331 3.84296 12.1187 4.51417 12.3125 5.25" stroke="black" stroke-linecap="round" stroke-linejoin="round"/>
<path d="M8.8125 3.9375C9.71594 4.17922 10.3208 4.78406 10.5625 5.6875" stroke="black" stroke-linecap="round" stroke-linejoin="round"/>
<path d="M9.49008 7.9483C9.55067 7.90798 9.62036 7.88342 9.69284 7.87683C9.76531 7.87024 9.83829 7.88183 9.90516 7.91056L12.4842 9.06611C12.5711 9.10326 12.6437 9.16756 12.691 9.24938C12.7383 9.33121 12.7579 9.42616 12.7467 9.52002C12.6618 10.155 12.3491 10.7374 11.8668 11.1591C11.3846 11.5808 10.7656 11.813 10.125 11.8125C8.15245 11.8125 6.2607 11.0289 4.86589 9.63412C3.47109 8.23932 2.6875 6.34757 2.6875 4.37502C2.68701 3.73441 2.9192 3.11543 3.34089 2.63318C3.76257 2.15094 4.34505 1.83826 4.98 1.7533C5.07386 1.74215 5.16881 1.7617 5.25064 1.80902C5.33246 1.85634 5.39676 1.92888 5.43391 2.0158L6.58945 4.59705C6.61785 4.66335 6.62941 4.73563 6.62311 4.80748C6.61681 4.87932 6.59285 4.9485 6.55336 5.00885L5.38469 6.39846C5.34323 6.46101 5.31872 6.53325 5.31354 6.60811C5.30837 6.68298 5.32271 6.7579 5.35516 6.82557C5.80742 7.75142 6.76445 8.69697 7.69305 9.14486C7.76107 9.17717 7.83634 9.19119 7.91143 9.18553C7.98652 9.17987 8.05884 9.15473 8.12125 9.1126L9.49008 7.9483Z" stroke="black" stroke-linecap="round" stroke-linejoin="round"/>
</g>
<defs>
<clipPath id="clip0_55_21259">
<rect width="14" height="14" fill="white" transform="translate(0.5)"/>
</clipPath>
</defs>
</svg>
