<svg width="24" height="24" viewBox="0 0 24 24" fill="none" xmlns="http://www.w3.org/2000/svg">
<g clip-path="url(#clip0_55_21167)">
<path d="M11.25 8.25L8.25 21" stroke="black" stroke-width="2" stroke-linecap="round" stroke-linejoin="round"/>
<path d="M5.50313 14.25C4.9285 13.2537 4.59072 12.1386 4.51589 10.9909C4.44106 9.84317 4.6312 8.69363 5.07159 7.63114C5.51199 6.56866 6.19084 5.62169 7.05567 4.86346C7.92049 4.10524 8.94812 3.55607 10.0591 3.25843C11.17 2.96078 12.3346 2.92263 13.4626 3.14693C14.5907 3.37123 15.652 3.85196 16.5646 4.55196C17.4772 5.25196 18.2166 6.15246 18.7256 7.18385C19.2346 8.21524 19.4996 9.34987 19.5 10.5C19.5 14.6419 16.5 17.25 13.5 17.25C10.5 17.25 9.59719 15.2747 9.59719 15.2747" stroke="black" stroke-width="2" stroke-linecap="round" stroke-linejoin="round"/>
</g>
<defs>
<clipPath id="clip0_55_21167">
<rect width="24" height="24" fill="white"/>
</clipPath>
</defs>
</svg>
