<svg width="24" height="24" viewBox="0 0 24 24" fill="none" xmlns="http://www.w3.org/2000/svg">
<g clip-path="url(#clip0_14_1355)">
<path d="M12.5044 3.19499C12.3663 3.06929 12.1863 2.99963 11.9995 2.99963C11.8128 2.99963 11.6328 3.06929 11.4947 3.19499L3.99469 10.2769C3.91751 10.3472 3.85587 10.433 3.81374 10.5285C3.7716 10.6241 3.74989 10.7274 3.75 10.8319V19.5C3.75 19.6989 3.82902 19.8897 3.96967 20.0303C4.11032 20.171 4.30109 20.25 4.5 20.25H19.5C19.6989 20.25 19.8897 20.171 20.0303 20.0303C20.171 19.8897 20.25 19.6989 20.25 19.5V10.8319C20.25 10.7273 20.2281 10.624 20.1858 10.5284C20.1435 10.4328 20.0817 10.3472 20.0044 10.2769L12.5044 3.19499Z" stroke="black" stroke-width="2" stroke-linecap="round" stroke-linejoin="round"/>
</g>
<defs>
<clipPath id="clip0_14_1355">
<rect width="24" height="24" fill="white"/>
</clipPath>
</defs>
</svg>
