<svg width="24" height="24" viewBox="0 0 24 24" fill="none" xmlns="http://www.w3.org/2000/svg">
<g clip-path="url(#clip0_55_21173)">
<path d="M4.5 3.75L19.5 20.25" stroke="black" stroke-width="2" stroke-linecap="round" stroke-linejoin="round"/>
<path d="M14.5227 14.775C13.7867 15.4441 12.8151 15.7934 11.8216 15.7461C10.828 15.6988 9.89397 15.2588 9.22488 14.5228C8.55579 13.7868 8.20646 12.8152 8.25376 11.8217C8.30105 10.8281 8.74109 9.89407 9.47706 9.22498" stroke="black" stroke-width="2" stroke-linecap="round" stroke-linejoin="round"/>
<path d="M12.7061 8.31653C13.5033 8.4692 14.2295 8.87644 14.7755 9.47708C15.3216 10.0777 15.658 10.8393 15.7342 11.6475" stroke="black" stroke-width="2" stroke-linecap="round" stroke-linejoin="round"/>
<path d="M19.557 15.8531C21.6007 14.0231 22.4998 12 22.4998 12C22.4998 12 19.4998 5.25001 11.9998 5.25001C11.3503 5.24912 10.7019 5.3018 10.061 5.40751" stroke="black" stroke-width="2" stroke-linecap="round" stroke-linejoin="round"/>
<path d="M6.9375 6.43127C3.11531 8.36627 1.5 12 1.5 12C1.5 12 4.5 18.75 12 18.75C13.7574 18.7638 15.4927 18.3589 17.0625 17.5688" stroke="black" stroke-width="2" stroke-linecap="round" stroke-linejoin="round"/>
</g>
<defs>
<clipPath id="clip0_55_21173">
<rect width="24" height="24" fill="white"/>
</clipPath>
</defs>
</svg>
