<svg width="15" height="14" viewBox="0 0 15 14" fill="none" xmlns="http://www.w3.org/2000/svg">
<g clip-path="url(#clip0_55_21254)">
<path d="M5.56898 11.8124H3.125C3.00897 11.8124 2.89769 11.7664 2.81564 11.6843C2.73359 11.6023 2.6875 11.491 2.6875 11.3749V8.93096C2.68755 8.81509 2.73358 8.70396 2.81547 8.62198L9.55953 1.87792C9.64157 1.79593 9.75281 1.74988 9.86879 1.74988C9.98477 1.74988 10.096 1.79593 10.178 1.87792L12.622 4.32026C12.704 4.4023 12.7501 4.51354 12.7501 4.62952C12.7501 4.7455 12.704 4.85674 12.622 4.93878L5.87797 11.6845C5.79598 11.7664 5.68486 11.8124 5.56898 11.8124Z" stroke="black" stroke-linecap="round" stroke-linejoin="round"/>
<path d="M7.9375 3.5L11 6.5625" stroke="black" stroke-linecap="round" stroke-linejoin="round"/>
</g>
<defs>
<clipPath id="clip0_55_21254">
<rect width="14" height="14" fill="white" transform="translate(0.5)"/>
</clipPath>
</defs>
</svg>
