<svg width="15" height="14" viewBox="0 0 15 14" fill="none" xmlns="http://www.w3.org/2000/svg">
<g clip-path="url(#clip0_14_1378)">
<path d="M7.79422 1.86371C7.71366 1.79039 7.60865 1.74976 7.49973 1.74976C7.3908 1.74976 7.28579 1.79039 7.20523 1.86371L2.83023 5.99481C2.78521 6.03586 2.74926 6.08586 2.72468 6.14161C2.7001 6.19736 2.68744 6.25763 2.6875 6.31856V11.375C2.6875 11.491 2.73359 11.6023 2.81564 11.6843C2.89769 11.7664 3.00897 11.8125 3.125 11.8125H11.875C11.991 11.8125 12.1023 11.7664 12.1844 11.6843C12.2664 11.6023 12.3125 11.491 12.3125 11.375V6.31856C12.3125 6.25759 12.2997 6.19729 12.2751 6.14154C12.2504 6.08579 12.2143 6.03581 12.1692 5.99481L7.79422 1.86371Z" stroke="black" stroke-linecap="round" stroke-linejoin="round"/>
</g>
<defs>
<clipPath id="clip0_14_1378">
<rect width="14" height="14" fill="white" transform="translate(0.5)"/>
</clipPath>
</defs>
</svg>
