<svg width="24" height="24" viewBox="0 0 24 24" fill="none" xmlns="http://www.w3.org/2000/svg">
<g clip-path="url(#clip0_55_21175)">
<path d="M15.75 9.5625C17.279 10.6631 19.1161 11.2536 21 11.25V7.5C19.6076 7.5 18.2723 6.94688 17.2877 5.96231C16.3031 4.97774 15.75 3.64239 15.75 2.25H12V14.625C11.9998 15.0947 11.8736 15.5558 11.6345 15.9601C11.3954 16.3644 11.0522 16.6971 10.6407 16.9236C10.2291 17.1501 9.76439 17.262 9.2949 17.2477C8.8254 17.2333 8.36834 17.0933 7.97141 16.8421C7.57448 16.591 7.25221 16.2379 7.03822 15.8198C6.82423 15.4016 6.72636 14.9337 6.75482 14.4649C6.78328 13.996 6.93702 13.5434 7.20001 13.1542C7.463 12.765 7.82561 12.4535 8.25 12.2522V8.25C5.26594 8.78156 3 11.4881 3 14.625C3 16.3158 3.67165 17.9373 4.86719 19.1328C6.06274 20.3284 7.68424 21 9.375 21C11.0658 21 12.6873 20.3284 13.8828 19.1328C15.0784 17.9373 15.75 16.3158 15.75 14.625V9.5625Z" stroke="black" stroke-width="2" stroke-linecap="round" stroke-linejoin="round"/>
</g>
<defs>
<clipPath id="clip0_55_21175">
<rect width="24" height="24" fill="white"/>
</clipPath>
</defs>
</svg>
