<svg width="72" height="48" viewBox="0 0 72 48" fill="none" xmlns="http://www.w3.org/2000/svg">
<rect x="0.5" y="0.5" width="71" height="47" rx="5.5" fill="white" stroke="#DDDDDD"/>
<path d="M22.6169 10.2015H33.5992C35.1322 10.2015 36.0857 11.4545 35.7281 12.9968L30.615 35.009C30.2542 36.546 28.7193 37.8 27.1852 37.8H16.2039C14.673 37.8 13.7174 36.546 14.075 35.009L19.1902 12.9968C19.5478 11.4545 21.0819 10.2015 22.6169 10.2015Z" fill="#E21836"/>
<path d="M32.685 10.2H45.3144C46.8472 10.2 46.156 11.453 45.7954 12.9953L40.6832 35.0075C40.3245 36.5444 40.4364 37.7985 38.9004 37.7985H26.271C24.735 37.7985 23.7845 36.5444 24.1453 35.0075L29.2573 12.9953C29.6203 11.453 31.1512 10.2 32.685 10.2Z" fill="#00447C"/>
<path d="M44.8134 10.2H55.7957C57.3309 10.2 58.2844 11.453 57.9238 12.9953L52.8116 35.0075C52.4507 36.5444 50.9147 37.7985 49.3798 37.7985H38.4026C36.8666 37.7985 35.9139 36.5444 36.2737 35.0075L41.3868 12.9953C41.7444 11.453 43.2774 10.2 44.8134 10.2Z" fill="#007B84"/>
<path d="M25.4848 17.2542C24.3554 17.2657 24.0219 17.2542 23.9153 17.229C23.8744 17.4241 23.1123 20.9492 23.1101 20.9522C22.9461 21.6653 22.8267 22.1737 22.4211 22.502C22.1909 22.6928 21.9222 22.7849 21.6106 22.7849C21.1097 22.7849 20.818 22.5355 20.769 22.0626L20.7596 21.9002C20.7596 21.9002 20.9122 20.9449 20.9122 20.9395C20.9122 20.9395 21.712 17.7271 21.8552 17.3025C21.8627 17.2784 21.8649 17.2657 21.8667 17.2542C20.3099 17.2679 20.0339 17.2542 20.0149 17.229C20.0045 17.2636 19.9659 17.4628 19.9659 17.4628L19.1492 21.0834L19.0791 21.3905L18.9434 22.3949C18.9434 22.6928 19.0017 22.936 19.1179 23.1416C19.49 23.7936 20.5513 23.8913 21.1518 23.8913C21.9254 23.8913 22.6511 23.7265 23.1415 23.4256C23.9927 22.9212 24.2154 22.1329 24.414 21.4324L24.5061 21.0729C24.5061 21.0729 25.3301 17.7365 25.4701 17.3025C25.4754 17.2784 25.4776 17.2657 25.4848 17.2542ZM28.2882 19.9457C28.0895 19.9457 27.7266 19.994 27.4005 20.1543C27.2822 20.2152 27.1703 20.2855 27.0523 20.3556L27.1588 19.9699L27.1004 19.9049C26.409 20.0453 26.2543 20.0641 25.6156 20.1543L25.5621 20.19C25.4879 20.8065 25.4221 21.2701 25.1471 22.482C25.0425 22.9286 24.9338 23.3795 24.8249 23.8251L24.8543 23.8817C25.5088 23.8471 25.7074 23.8471 26.2762 23.8565L26.3223 23.8063C26.3946 23.4351 26.4039 23.3481 26.564 22.5963C26.6392 22.2399 26.7961 21.4566 26.8734 21.1777C27.0156 21.1117 27.1559 21.0467 27.2897 21.0467C27.6085 21.0467 27.5697 21.3256 27.5574 21.4368C27.5437 21.6233 27.4276 22.2326 27.3084 22.7557L27.2289 23.0934C27.1735 23.3428 27.1128 23.5851 27.0573 23.8324L27.0814 23.8817C27.7266 23.8471 27.9233 23.8471 28.4742 23.8565L28.539 23.8063C28.6386 23.2265 28.6677 23.0714 28.8444 22.2272L28.9333 21.8394C29.1059 21.0803 29.1927 20.6954 29.062 20.3819C28.9239 20.0305 28.5925 19.9457 28.2882 19.9457ZM31.4199 20.7405C31.077 20.8065 30.8583 20.8505 30.6409 20.879C30.4254 20.9136 30.2153 20.945 29.8839 20.9912L29.8577 21.015L29.8336 21.0341C29.799 21.2816 29.7749 21.4955 29.7292 21.747C29.6904 22.0071 29.6307 22.3026 29.5335 22.7273C29.4583 23.0523 29.4195 23.1656 29.3766 23.2799C29.3349 23.3943 29.2888 23.5054 29.2042 23.8251L29.224 23.8546L29.2406 23.8817C29.5504 23.867 29.753 23.8565 29.9612 23.8546C30.1692 23.8471 30.3847 23.8546 30.7183 23.8565L30.7474 23.8326L30.7788 23.8063C30.8269 23.518 30.8342 23.4404 30.8636 23.2998C30.8928 23.1489 30.9431 22.9401 31.0665 22.3824C31.1249 22.1204 31.1899 21.8592 31.2504 21.5919C31.3133 21.3256 31.3792 21.0634 31.4418 20.8014L31.4324 20.7697L31.4199 20.7405ZM31.4272 19.6689C31.1156 19.4845 30.5687 19.543 30.2006 19.7977C29.8336 20.0474 29.7919 20.4017 30.1024 20.5885C30.4086 20.7678 30.9577 20.7144 31.3225 20.4575C31.6887 20.2025 31.7345 19.8514 31.4272 19.6689ZM33.3115 23.9395C33.9419 23.9395 34.5881 23.7653 35.0745 23.2483C35.4487 22.8291 35.6203 22.2053 35.6798 21.9484C35.8733 21.097 35.7226 20.6995 35.5333 20.4574C35.2458 20.0883 34.7378 19.9699 34.2107 19.9699C33.8938 19.9699 33.1389 20.0013 32.5492 20.5465C32.1257 20.9397 31.93 21.4733 31.812 21.9849C31.6929 22.5062 31.5558 23.4446 32.4164 23.7938C32.6819 23.9081 33.0647 23.9395 33.3115 23.9395ZM33.2623 22.0238C33.4076 21.3791 33.5792 20.838 34.0172 20.838C34.3603 20.838 34.3852 21.2406 34.2326 21.8875C34.2053 22.0311 34.0801 22.565 33.9106 22.7923C33.7923 22.9601 33.6523 23.0618 33.4976 23.0618C33.4515 23.0618 33.1777 23.0618 33.1734 22.6541C33.1713 22.4528 33.2122 22.2472 33.2623 22.0238ZM37.2556 23.8566L37.3049 23.8064C37.3747 23.4352 37.3862 23.3479 37.541 22.5964C37.6183 22.2399 37.7784 21.4567 37.8536 21.1778C37.996 21.1115 38.1339 21.0466 38.272 21.0466C38.5887 21.0466 38.5501 21.3254 38.5376 21.4366C38.526 21.6234 38.4099 22.2324 38.2886 22.7556L38.2134 23.0932C38.1558 23.3428 38.0932 23.585 38.0378 23.8324L38.0619 23.8818C38.7091 23.8472 38.8984 23.8472 39.4525 23.8566L39.5194 23.8064C39.6166 23.2264 39.6428 23.0712 39.8249 22.2273L39.9116 21.8392C40.085 21.0801 40.1728 20.6955 40.0444 20.382C39.9022 20.0306 39.5687 19.9458 39.2686 19.9458C39.0697 19.9458 38.7049 19.9938 38.3807 20.1543C38.2648 20.2153 38.1486 20.2853 38.0346 20.3557L38.1339 19.9699L38.0806 19.9047C37.3895 20.0454 37.2315 20.0642 36.5936 20.1543L36.5446 20.19C36.4673 20.8066 36.4044 21.2699 36.1295 22.482C36.0248 22.9287 35.9161 23.3796 35.8074 23.8252L35.8366 23.8818C36.4922 23.8472 36.6879 23.8472 37.2556 23.8566ZM42.0112 23.8817C42.0519 23.6825 42.2936 22.502 42.2957 22.502C42.2957 22.502 42.5016 21.6359 42.5142 21.6045C42.5142 21.6045 42.5789 21.5143 42.6437 21.4786H42.739C43.6382 21.4786 44.6535 21.4786 45.4493 20.8915C45.9908 20.4889 46.3611 19.8944 46.5262 19.1718C46.569 18.9947 46.6006 18.784 46.6006 18.5732C46.6006 18.2965 46.5452 18.0227 46.3851 17.8088C45.9793 17.2395 45.1712 17.229 44.2383 17.2247C44.2354 17.2247 43.7784 17.229 43.7784 17.229C42.5843 17.2438 42.1054 17.2395 41.9087 17.2153C41.8921 17.3026 41.8607 17.4577 41.8607 17.4577C41.8607 17.4577 41.433 19.4456 41.433 19.4488C41.433 19.4488 40.4093 23.6753 40.3612 23.8744C41.4038 23.8618 41.8313 23.8618 42.0112 23.8817ZM42.8038 20.3504C42.8038 20.3504 43.2586 18.3666 43.2564 18.3741L43.2712 18.2724L43.2776 18.1948L43.4593 18.2136C43.4593 18.2136 44.3973 18.2944 44.4193 18.2965C44.7895 18.4401 44.9421 18.8103 44.8355 19.2934C44.7383 19.7349 44.4527 20.1062 44.0857 20.2855C43.7835 20.4374 43.4133 20.45 43.0319 20.45H42.7851L42.8038 20.3504ZM45.6355 22.0606C45.5153 22.5743 45.3772 23.5127 46.2335 23.8471C46.5065 23.9636 46.7512 23.9983 46.9999 23.9857C47.2625 23.9714 47.5058 23.8394 47.7312 23.6493C47.7108 23.7274 47.6905 23.8055 47.6701 23.8839L47.709 23.9341C48.3249 23.9081 48.516 23.9081 49.1834 23.9132L49.2439 23.867C49.3413 23.2926 49.4331 22.7348 49.6863 21.6359C49.8097 21.1096 49.9329 20.5883 50.0595 20.0641L50.0397 20.0064C49.3507 20.1344 49.1665 20.1618 48.5037 20.256L48.4534 20.2971C48.4467 20.3505 48.4397 20.4018 48.4333 20.453C48.3303 20.2861 48.1809 20.1436 47.9504 20.0547C47.6557 19.9385 46.9635 20.0883 46.3684 20.6315C45.9503 21.0194 45.7495 21.5509 45.6355 22.0606ZM47.0826 22.092C47.2301 21.4588 47.3995 20.923 47.8385 20.923C48.1161 20.923 48.2623 21.1799 48.2325 21.618C48.209 21.7272 48.1836 21.8424 48.1533 21.9725C48.1094 22.1607 48.0618 22.3472 48.0155 22.5341C47.9683 22.6618 47.9135 22.7823 47.8532 22.8626C47.7403 23.0231 47.4715 23.1227 47.3168 23.1227C47.2729 23.1227 47.002 23.1227 46.9926 22.7222C46.9905 22.5228 47.0314 22.3175 47.0826 22.092ZM54.6395 20.0013L54.5862 19.9403C53.9044 20.0788 53.781 20.1008 53.1546 20.1857L53.1086 20.2318C53.1064 20.2394 53.1045 20.2509 53.1013 20.2614L53.0992 20.2509C52.6329 21.3297 52.6465 21.0969 52.267 21.9462C52.2648 21.9076 52.2648 21.8834 52.2627 21.8423L52.1677 20.0013L52.108 19.9403C51.3938 20.0788 51.3769 20.1008 50.7173 20.1857L50.6659 20.2318C50.6587 20.2538 50.6587 20.278 50.6544 20.3043L50.6587 20.3137C50.7412 20.7362 50.7213 20.642 50.8041 21.3087C50.8426 21.6359 50.894 21.965 50.9326 22.2882C50.9976 22.829 51.034 23.0953 51.1135 23.9207C50.6681 24.6577 50.5626 24.9366 50.1338 25.5835L50.1367 25.5899L49.8348 26.0688C49.8002 26.1193 49.7689 26.1539 49.725 26.1686C49.6768 26.1925 49.6142 26.1968 49.5272 26.1968H49.3599L49.1112 27.0262L49.9643 27.041C50.4652 27.0388 50.78 26.804 50.9494 26.4883L51.4859 25.5666H51.4773L51.5338 25.5016C51.8946 24.7227 54.6395 20.0013 54.6395 20.0013ZM45.6354 30.8942H45.2735L46.613 26.4517H47.0574L47.1985 25.994L47.2121 26.503C47.1955 26.8175 47.4423 27.0964 48.0906 27.0503H48.8404L49.0985 26.1948H48.8163C48.6541 26.1948 48.5789 26.1537 48.5883 26.0657L48.5746 25.5479H47.1861V25.5506C46.7372 25.56 45.3967 25.5938 45.1252 25.6663C44.7968 25.7511 44.4507 26.0008 44.4507 26.0008L44.5867 25.5426H43.2878L43.0172 26.4517L41.6598 30.9621H41.3964L41.1381 31.8114H43.725L43.6382 32.0946H44.913L44.9975 31.8114H45.3552L45.6354 30.8942ZM44.5741 27.3544C44.3661 27.4121 43.979 27.5871 43.979 27.5871L44.3232 26.4517H45.3552L45.1062 27.2789C45.1062 27.2789 44.7874 27.2977 44.5741 27.3544ZM44.5939 28.9764C44.5939 28.9764 44.2697 29.0172 44.0564 29.0655C43.8462 29.1294 43.4522 29.3307 43.4522 29.3307L43.8077 28.1491H44.845L44.5939 28.9764ZM44.0157 30.9047H42.9805L43.2806 29.9075H44.3125L44.0157 30.9047ZM46.5085 28.1491H48.0006L47.7862 28.8454H46.2743L46.0473 29.6066H47.3702L46.3685 31.0209C46.2984 31.1248 46.2355 31.1616 46.1656 31.1908C46.0955 31.2265 46.0034 31.2684 45.8969 31.2684H45.5299L45.2777 32.1021H46.2376C46.7366 32.1021 47.0313 31.8745 47.2489 31.5757L47.9358 30.6331L48.0833 31.5902C48.1146 31.7695 48.2431 31.8745 48.3301 31.9153C48.4262 31.9636 48.5255 32.0465 48.6658 32.0589C48.8162 32.0653 48.9249 32.0704 48.9972 32.0704H49.4689L49.7521 31.1374H49.566C49.4592 31.1374 49.2753 31.1194 49.244 31.0859C49.2127 31.0451 49.2127 30.9823 49.1958 30.8867L49.0462 29.9274H48.4334L48.7022 29.6066H50.2111L50.4432 28.8454H49.0462L49.2638 28.1491H50.6566L50.9149 27.2905H46.7626L46.5085 28.1491ZM33.9064 31.0986L34.2546 29.9369H35.686L35.9475 29.0728H34.5148L34.7335 28.3578H36.1335L36.3929 27.5211H32.89L32.636 28.3578H33.4318L33.2195 29.0728H32.4215L32.1571 29.9516H32.9526L32.4885 31.4886C32.4258 31.692 32.5179 31.7696 32.5763 31.8641C32.636 31.9562 32.6965 32.0171 32.8324 32.0517C32.9727 32.0831 33.0688 32.1019 33.1994 32.1019H34.813L35.1005 31.1447L34.3853 31.2432C34.2472 31.2432 33.8646 31.2266 33.9064 31.0986ZM34.0706 25.5373L33.7079 26.1947C33.6302 26.3383 33.5604 26.4274 33.4974 26.4685C33.442 26.5031 33.3323 26.5176 33.1733 26.5176H32.984L32.7311 27.3585H33.3596C33.6618 27.3585 33.8939 27.2474 34.0047 27.1918C34.1238 27.128 34.1552 27.1645 34.2472 27.0754L34.4595 26.891H36.4222L36.6826 26.0154H35.246L35.4968 25.5373H34.0706ZM36.9681 31.1155C36.9346 31.0671 36.9587 30.9821 37.0099 30.8049L37.5463 29.0245H39.4546C39.7327 29.0205 39.9335 29.0173 40.0641 29.0079C40.2044 28.9931 40.357 28.9429 40.5232 28.8527C40.6948 28.7582 40.7826 28.6587 40.8568 28.5443C40.9395 28.4302 41.0722 28.1806 41.1863 27.7957L41.8606 25.5426L39.8802 25.5542C39.8802 25.5542 39.2705 25.6444 39.002 25.7439C38.7311 25.8551 38.344 26.1653 38.344 26.1653L38.5228 25.5477H37.2995L35.5868 31.2432C35.5261 31.4644 35.4854 31.6249 35.476 31.7213C35.4728 31.8251 35.6066 31.928 35.6934 32.0055C35.7959 32.0831 35.9474 32.0705 36.0928 32.0831C36.2456 32.0946 36.463 32.1019 36.763 32.1019H37.7032L37.9917 31.1249L37.1501 31.2046C37.0602 31.2046 36.9951 31.1563 36.9681 31.1155ZM37.8924 27.822H39.8968L39.7694 28.2225C39.7515 28.2319 39.7087 28.2026 39.5047 28.2268H37.769L37.8924 27.822ZM38.2939 26.4789H40.3152L40.1699 26.9612C40.1699 26.9612 39.2172 26.9518 39.0646 26.98C38.3932 27.0965 38.0011 27.4562 38.0011 27.4562L38.2939 26.4789ZM39.8143 29.5636C39.7977 29.6234 39.7715 29.6599 39.7348 29.6873C39.6941 29.7136 39.6282 29.723 39.53 29.723H39.2444L39.2612 29.2353H38.0733L38.0251 31.6196C38.0232 31.7917 38.0398 31.8913 38.1653 31.971C38.2909 32.0706 38.6777 32.0832 39.1983 32.0832H39.9428L40.2115 31.1907L39.5635 31.2264L39.348 31.239C39.3185 31.2264 39.2904 31.2149 39.2591 31.1834C39.2318 31.1563 39.1858 31.173 39.1933 31.0009L39.1983 30.3897L39.878 30.3616C40.245 30.3616 40.4019 30.2418 40.5357 30.1278C40.6634 30.0185 40.7051 29.8929 40.7533 29.723L40.8674 29.1819H39.9334L39.8143 29.5636Z" fill="#FEFEFE"/>
</svg>
