<svg width="15" height="14" viewBox="0 0 15 14" fill="none" xmlns="http://www.w3.org/2000/svg">
<g clip-path="url(#clip0_55_21262)">
<path d="M2.6875 3.5V10.5C2.6875 10.7321 2.77969 10.9546 2.94378 11.1187C3.10788 11.2828 3.33044 11.375 3.5625 11.375H12.3125C12.4285 11.375 12.5398 11.3289 12.6219 11.2469C12.7039 11.1648 12.75 11.0535 12.75 10.9375V4.8125C12.75 4.69647 12.7039 4.58519 12.6219 4.50314C12.5398 4.42109 12.4285 4.375 12.3125 4.375H3.5625C3.33044 4.375 3.10788 4.28281 2.94378 4.11872C2.77969 3.95462 2.6875 3.73206 2.6875 3.5ZM2.6875 3.5C2.6875 3.26794 2.77969 3.04538 2.94378 2.88128C3.10788 2.71719 3.33044 2.625 3.5625 2.625H11" stroke="black" stroke-linecap="round" stroke-linejoin="round"/>
<path d="M10.3438 8.20312C10.6458 8.20312 10.8906 7.95828 10.8906 7.65625C10.8906 7.35422 10.6458 7.10938 10.3438 7.10938C10.0417 7.10938 9.79688 7.35422 9.79688 7.65625C9.79688 7.95828 10.0417 8.20312 10.3438 8.20312Z" fill="black"/>
</g>
<defs>
<clipPath id="clip0_55_21262">
<rect width="14" height="14" fill="white" transform="translate(0.5)"/>
</clipPath>
</defs>
</svg>
