<svg width="24" height="24" viewBox="0 0 24 24" fill="none" xmlns="http://www.w3.org/2000/svg">
<g clip-path="url(#clip0_55_21165)">
<path d="M15 12L10.5 9V15L15 12Z" stroke="black" stroke-width="2" stroke-linecap="round" stroke-linejoin="round"/>
<path d="M2.25 12C2.25 14.804 2.53781 16.4484 2.75719 17.294C2.8152 17.524 2.92694 17.737 3.08322 17.9155C3.23951 18.0939 3.43589 18.2328 3.65625 18.3206C6.79875 19.5328 12 19.5 12 19.5C12 19.5 17.2012 19.5328 20.3438 18.3206C20.5648 18.2332 20.7619 18.0946 20.9189 17.9161C21.0759 17.7377 21.1882 17.5244 21.2466 17.294C21.4659 16.4503 21.7537 14.804 21.7537 12C21.7537 9.1959 21.4659 7.55153 21.2466 6.7059C21.1888 6.47464 21.0768 6.26047 20.9198 6.08113C20.7628 5.90179 20.5653 5.76245 20.3438 5.67465C17.2012 4.46715 12 4.49997 12 4.49997C12 4.49997 6.79875 4.46715 3.65625 5.67934C3.43466 5.76714 3.23718 5.90648 3.08017 6.08582C2.92317 6.26516 2.81116 6.47933 2.75344 6.71059C2.53781 7.55059 2.25 9.1959 2.25 12Z" stroke="black" stroke-width="2" stroke-linecap="round" stroke-linejoin="round"/>
</g>
<defs>
<clipPath id="clip0_55_21165">
<rect width="24" height="24" fill="white"/>
</clipPath>
</defs>
</svg>
